# xmcd CD database file
#
# Track frame offsets:
#	150
#	34955
#	65355
#	90997
#	112504
#	125998
#	150457
#	172473
#	199771
#
# Disc length: 2969 seconds
#
# Revision: 0
# Processed by: cddbd v1.5.2PL0 Copyright (c) Steve Scherf et al.
# Submitted via: CDex 1.51
#
DISCID=750b9709
DTITLE=Claude Basso - Paul Pioli - Un dimanche chez Henri
DYEAR=2009
DGENRE=Jazz
TTITLE0=Alone together
TTITLE1=Cherokee
TTITLE2=Careful
TTITLE3=If I had You
TTITLE4=Motion
TTITLE5=All the things you are
TTITLE6=Polka dots and moonbeans
TTITLE7=Says you
TTITLE8=2 degrees east - 3 degrees west
EXTD=YEAR: 2009
EXTT0=
EXTT1=
EXTT2=
EXTT3=
EXTT4=
EXTT5=
EXTT6=
EXTT7=
EXTT8=
PLAYORDER=
